<?xml version="1.0" encoding="iso-8859-1"?>
<!-- Uploaded to: SVG Repo, www.svgrepo.com, Generator: SVG Repo Mixer Tools -->
<svg fill="#000000" version="1.1" id="Layer_1" xmlns="http://www.w3.org/2000/svg" xmlns:xlink="http://www.w3.org/1999/xlink" 
	 viewBox="0 0 512 512" xml:space="preserve">
<g>
	<g>
		<path d="M438.917,137.323V18.116H73.083v119.206H0v356.561h512V137.323H438.917z M104.43,49.463h303.14v87.859H104.43V49.463z
			 M480.653,462.537H31.347V168.669h449.306V462.537z"/>
	</g>
</g>
<g>
	<g>
		<rect x="298.151" y="220.15" width="105.566" height="31.347"/>
	</g>
</g>
<g>
	<g>
		<rect x="259.281" y="259.668" width="183.306" height="31.347"/>
	</g>
</g>
<g>
	<g>
		<rect x="298.151" y="379.706" width="105.566" height="31.347"/>
	</g>
</g>
<g>
	<g>
		<rect x="259.281" y="340.198" width="183.306" height="31.347"/>
	</g>
</g>
<g>
	<g>
		<rect x="244.558" y="299.259" width="212.752" height="31.347"/>
	</g>
</g>
<g>
	<g>
		<path d="M129.167,197.418c-30.453,0-55.227,24.775-55.227,55.227s24.775,55.227,55.227,55.227s55.227-24.775,55.227-55.227
			S159.62,197.418,129.167,197.418z M129.167,276.525c-13.168,0-23.88-10.712-23.88-23.88s10.712-23.88,23.88-23.88
			c13.168,0,23.88,10.712,23.88,23.88S142.335,276.525,129.167,276.525z"/>
	</g>
</g>
<g>
	<g>
		<path d="M129.167,327.367c-30.451,0-55.227,24.775-55.227,55.227s24.775,55.227,55.227,55.227s55.227-24.775,55.227-55.227
			S159.619,327.367,129.167,327.367z M129.167,406.474c-13.168,0-23.88-10.712-23.88-23.88s10.712-23.88,23.88-23.88
			c13.168,0,23.88,10.712,23.88,23.88S142.335,406.474,129.167,406.474z"/>
	</g>
</g>
</svg>